<?xml version="1.0" standalone="no"?><!DOCTYPE svg PUBLIC "-//W3C//DTD SVG 1.1//EN" "http://www.w3.org/Graphics/SVG/1.1/DTD/svg11.dtd"><svg t="1665239581723" class="icon" viewBox="0 0 1024 1024" version="1.1" xmlns="http://www.w3.org/2000/svg" p-id="2513" xmlns:xlink="http://www.w3.org/1999/xlink" width="200" height="200"><path d="M656 320H368l-96 240h432v128h16v192h160z" fill="#FFDE8A" p-id="2514"></path><path d="M640 880H368c16.368 0 32.752 6.256 45.248 18.752S432 927.632 432 944s-6.256 32.768-18.752 45.248A63.812 63.812 0 0 1 368 1008h272a63.812 63.812 0 0 0 45.248-18.752c12.496-12.48 18.752-28.88 18.752-45.248s-6.256-32.752-18.752-45.248S656.368 880 640 880z" fill="#FF5F5C" p-id="2515"></path><path d="M368 1024v-32c12.816 0 24.864-5.008 33.936-14.064S416 956.832 416 944c0-12.816-4.992-24.864-14.064-33.936C392.864 901.008 380.816 896 368 896v-32c21.36 0 41.456 8.336 56.56 23.44 15.12 15.12 23.44 35.2 23.44 56.56 0 21.376-8.336 41.472-23.44 56.56-15.104 15.104-35.2 23.44-56.56 23.44z" fill="#34303D" p-id="2516"></path><path d="M640 1024H32v-32c12.816 0 24.864-5.008 33.936-14.064S80 956.832 80 944v-16h32v16c0 17.552-5.616 34.24-15.984 48H640c12.816 0 24.88-5.008 33.936-14.064C683.008 968.88 688 956.832 688 944c0-12.816-5.008-24.88-14.064-33.936S652.816 896 640 896H16v-32h624c21.36 0 41.456 8.336 56.56 23.44S720 922.64 720 944c0 21.376-8.336 41.472-23.44 56.576C681.456 1015.664 661.36 1024 640 1024z" fill="#34303D" p-id="2517"></path><path d="M144 928h240v32H144z" fill="#34303D" p-id="2518"></path><path d="M112 560h512v128H112z" fill="#57DCF2" p-id="2519"></path><path d="M720 704H16v-160h704v160zM48 672h640v-96H48v96z" fill="#34303D" p-id="2520"></path><path d="M160 608h416v32H160zM752 896H112c-29.92 0-58.032-11.664-79.184-32.816C11.664 842.048 0 813.92 0 784s11.664-58.048 32.816-79.184C53.968 683.664 82.08 672 112 672h640v32H112c-21.36 0-41.456 8.336-56.56 23.44C40.32 742.544 32 762.624 32 784s8.32 41.456 23.44 56.56C70.544 855.664 90.64 864 112 864h640v32z" fill="#34303D" p-id="2521"></path><path d="M96 800h624v32H96zM96 736h624v32H96z" fill="#34303D" p-id="2522"></path><path d="M144 736h64v160H144z" fill="#FF5F5C" p-id="2523"></path><path d="M512 320m-64 0a64 64 0 1 0 128 0 64 64 0 1 0-128 0Z" fill="#FFFFFF" p-id="2524"></path><path d="M1024 1024H752v-32h240v-16c0-21.376-8.336-41.456-23.44-56.56S933.376 896 912 896h-96v-32h96c29.92 0 58.048 11.664 79.184 32.816C1012.336 917.952 1024 946.08 1024 976v48zM608 144h-32V96c0-17.088-6.656-33.168-18.752-45.248C545.168 38.656 529.104 32 512 32s-33.168 6.656-45.248 18.736C454.672 62.848 448 78.928 448 96v48h-32V96c0-25.616 9.984-49.712 28.112-67.872C462.24 10 486.336 0 512 0s49.76 10 67.888 28.128S608 70.352 608 96v48z" fill="#34303D" p-id="2525"></path><path d="M512 128c-106.064 0-192 85.936-192 192h384c0-106.064-85.936-192-192-192z" fill="#FF5F5C" p-id="2526"></path><path d="M720 320h-32c0-97.04-78.96-176-176-176s-176 78.96-176 176h-32c0-114.688 93.312-208 208-208s208 93.312 208 208z" fill="#34303D" p-id="2527"></path><path d="M896 880h-32V336c0-55.536-21.648-107.76-60.928-147.072C763.792 149.648 711.568 128 656 128h-64V96h64c64.112 0 124.368 24.976 169.696 70.304C871.024 211.664 896 271.92 896 336v544z" fill="#34303D" p-id="2528"></path></svg>